<svg width="102" height="61" viewBox="0 0 102 61" fill="none" xmlns="http://www.w3.org/2000/svg">
<path d="M28.348 30.5001C35.2868 30.5001 40.9325 24.8544 40.9325 17.9156C40.9325 10.9768 35.2868 5.33114 28.348 5.33114C21.4093 5.33114 15.7636 10.9768 15.7636 17.9156C15.7636 24.8544 21.4093 30.5001 28.348 30.5001ZM83.7196 10.3649H48.4832C47.0926 10.3649 45.9663 11.4912 45.9663 12.8818V35.5338H10.7298V2.81425C10.7298 1.42367 9.60349 0.297363 8.2129 0.297363H3.17912C1.78854 0.297363 0.662231 1.42367 0.662231 2.81425V58.1859C0.662231 59.5764 1.78854 60.7027 3.17912 60.7027H8.2129C9.60349 60.7027 10.7298 59.5764 10.7298 58.1859V50.6352H91.2703V58.1859C91.2703 59.5764 92.3966 60.7027 93.7872 60.7027H98.821C100.212 60.7027 101.338 59.5764 101.338 58.1859V27.9832C101.338 18.2522 93.4506 10.3649 83.7196 10.3649Z" fill="#1DA9EA"/>
</svg>
