<svg width="64" height="74" viewBox="0 0 64 74" fill="none" xmlns="http://www.w3.org/2000/svg">
<path d="M0 66.5401C0 70.3037 3.05343 73.3571 6.81696 73.3571H56.808C60.5716 73.3571 63.625 70.3037 63.625 66.5401V27.9107H0V66.5401ZM9.08929 39.2723C9.08929 38.0225 10.1118 37 11.3616 37H24.9955C26.2453 37 27.2679 38.0225 27.2679 39.2723V52.9062C27.2679 54.156 26.2453 55.1785 24.9955 55.1785H11.3616C10.1118 55.1785 9.08929 54.156 9.08929 52.9062V39.2723ZM56.808 9.73211H49.9911V2.91514C49.9911 1.66537 48.9685 0.642822 47.7188 0.642822H43.1741C41.9243 0.642822 40.9018 1.66537 40.9018 2.91514V9.73211H22.7232V2.91514C22.7232 1.66537 21.7007 0.642822 20.4509 0.642822H15.9062C14.6565 0.642822 13.6339 1.66537 13.6339 2.91514V9.73211H6.81696C3.05343 9.73211 0 12.7855 0 16.5491V23.366H63.625V16.5491C63.625 12.7855 60.5716 9.73211 56.808 9.73211Z" fill="#073145"/>
</svg>
