<svg width="56" height="55" viewBox="0 0 56 55" fill="none" xmlns="http://www.w3.org/2000/svg">
<path d="M28 0C12.8085 0 0.5 12.3085 0.5 27.5C0.5 42.6915 12.8085 55 28 55C43.1915 55 55.5 42.6915 55.5 27.5C55.5 12.3085 43.1915 0 28 0ZM38.2559 34.7077L36.0382 37.4798C35.8927 37.6618 35.7127 37.8133 35.5086 37.9257C35.3045 38.0381 35.0803 38.1092 34.8487 38.135C34.6171 38.1607 34.3827 38.1406 34.1589 38.0757C33.9351 38.0109 33.7263 37.9026 33.5444 37.7571L26.1149 32.2437C25.5958 31.8281 25.1768 31.3011 24.8889 30.7017C24.601 30.1022 24.4515 29.4457 24.4516 28.7807V11.5323C24.4516 11.0617 24.6385 10.6104 24.9713 10.2777C25.304 9.94499 25.7553 9.75806 26.2258 9.75806H29.7742C30.2447 9.75806 30.696 9.94499 31.0287 10.2777C31.3615 10.6104 31.5484 11.0617 31.5484 11.5323V27.5L37.9798 32.2127C38.1619 32.3583 38.3134 32.5384 38.4258 32.7426C38.5382 32.9469 38.6093 33.1713 38.6349 33.403C38.6606 33.6347 38.6403 33.8692 38.5753 34.093C38.5103 34.3169 38.4017 34.5258 38.2559 34.7077Z" fill="#1DA9EA"/>
</svg>
