<svg width="82" height="82" viewBox="0 0 82 82" fill="none" xmlns="http://www.w3.org/2000/svg">
<rect width="82" height="82" rx="41" fill="#1DA9EA" fill-opacity="0.42"/>
<g clip-path="url(#clip0_316_123)">
<path d="M58.395 24.8004L58.3963 24.8007C58.7488 24.8816 59.0003 25.1955 59.0003 25.5628C59.0003 44.047 44.0185 59.0003 25.5628 59.0003C25.1948 59.0003 24.8821 58.7475 24.8003 58.3943L23.0194 50.6768C23.0193 50.6766 23.0193 50.6764 23.0192 50.6762C23.0192 50.6762 23.0192 50.6762 23.0192 50.6762C22.9362 50.3142 23.1238 49.9291 23.4828 49.7696L31.7903 46.2092C32.1058 46.074 32.4767 46.1623 32.7009 46.4359C32.7009 46.4359 32.7009 46.4359 32.701 46.436L36.3819 50.9332L36.8751 51.5358L37.5802 51.2053C43.6057 48.3811 48.4427 43.4745 51.2126 37.5732L51.5436 36.8679L50.9407 36.3745L46.443 32.6932L46.443 32.6932L46.4378 32.6889C46.1737 32.4758 46.0797 32.1024 46.2167 31.7828L49.7774 23.4745C49.7776 23.4739 49.7779 23.4734 49.7781 23.4728C49.929 23.1276 50.3103 22.9351 50.6766 23.0193C50.6767 23.0193 50.6768 23.0193 50.6768 23.0193L58.395 24.8004Z" fill="#A0DBF6" stroke="#06A3DA" stroke-width="2"/>
</g>
<defs>
<clipPath id="clip0_316_123">
<rect width="38" height="38" fill="white" transform="translate(22 22)"/>
</clipPath>
</defs>
</svg>
