<svg width="64" height="19" viewBox="0 0 64 19" fill="none" xmlns="http://www.w3.org/2000/svg">
<path d="M41.1214 9.50005C41.1214 14.5421 37.0421 18.6214 32 18.6214C26.9579 18.6214 22.8786 14.5421 22.8786 9.50005C22.8786 4.45795 26.9579 0.378662 32 0.378662C37.0421 0.378662 41.1214 4.45795 41.1214 9.50005ZM54.2967 0.378662C49.2546 0.378662 45.1754 4.45795 45.1754 9.50005C45.1754 14.5421 49.2546 18.6214 54.2967 18.6214C59.3388 18.6214 63.4181 14.5421 63.4181 9.50005C63.4181 4.45795 59.3388 0.378662 54.2967 0.378662ZM9.7033 0.378662C4.6612 0.378662 0.581909 4.45795 0.581909 9.50005C0.581909 14.5421 4.6612 18.6214 9.7033 18.6214C14.7454 18.6214 18.8247 14.5421 18.8247 9.50005C18.8247 4.45795 14.7454 0.378662 9.7033 0.378662Z" fill="#1DA9EA"/>
</svg>
