<svg width="27" height="25" viewBox="0 0 27 25" fill="none" xmlns="http://www.w3.org/2000/svg">
<path d="M24.7556 14.6243L26.9716 4.87433C27.1315 4.17036 26.5965 3.5 25.8745 3.5H7.46288L7.03322 1.39953C6.92616 0.875985 6.46547 0.5 5.93105 0.5H1.125C0.503672 0.5 0 1.00367 0 1.625V2.375C0 2.99633 0.503672 3.5 1.125 3.5H4.40077L7.69364 19.5985C6.90586 20.0516 6.375 20.901 6.375 21.875C6.375 23.3248 7.55025 24.5 9 24.5C10.4498 24.5 11.625 23.3248 11.625 21.875C11.625 21.1403 11.3228 20.4765 10.8364 20H20.6636C20.1772 20.4765 19.875 21.1403 19.875 21.875C19.875 23.3248 21.0503 24.5 22.5 24.5C23.9498 24.5 25.125 23.3248 25.125 21.875C25.125 20.8357 24.5209 19.9376 23.6447 19.5123L23.9034 18.3743C24.0633 17.6704 23.5283 17 22.8063 17H10.2242L9.91744 15.5H23.6586C24.1839 15.5 24.6392 15.1365 24.7556 14.6243Z" fill="#073145"/>
</svg>
