<svg width="56" height="55" viewBox="0 0 56 55" fill="none" xmlns="http://www.w3.org/2000/svg">
<path d="M41.75 37.8124L48.625 4.58325C48.625 4.58325 36.5938 6.87492 36.5938 11.4583C36.5938 14.3228 41.1771 16.0416 39.4584 17.7603C37.7396 19.4791 31.4375 21.1978 31.4375 25.7812C31.4375 28.6458 33.3167 30.777 31.4375 32.6562C29.7188 34.3749 28 33.4743 25.1355 32.6562C21.9271 31.7395 15.3959 30.9374 13.1042 31.5103C10.8125 32.0833 8.52087 33.2291 8.52087 36.6666C8.52087 38.5572 9.66671 40.677 12.5313 41.2499C15.3959 41.8228 18.8334 38.9583 23.4167 38.9583C28 38.9583 33.7292 42.3958 37.1667 42.3958C40.6042 42.3958 41.75 37.8124 41.75 37.8124Z" fill="#1DA9EA" stroke="#1DA9EA" stroke-width="2" stroke-linejoin="round"/>
<path d="M13.1042 41.25L9.66675 50.4167H47.4792L40.6042 41.25" stroke="#1DA9EA" stroke-width="2" stroke-linejoin="round"/>
</svg>
