<svg width="86" height="51" viewBox="0 0 86 51" fill="none" xmlns="http://www.w3.org/2000/svg">
<path d="M21.75 21.25V29.75H64.25V21.25C64.25 16.5617 68.0617 12.75 72.75 12.75H77C77 5.71094 71.2891 0 64.25 0H21.75C14.7109 0 9 5.71094 9 12.75H13.25C17.9383 12.75 21.75 16.5617 21.75 21.25ZM77 17H72.75C70.3992 17 68.5 18.8992 68.5 21.25V34H17.5V21.25C17.5 18.8992 15.6008 17 13.25 17H9C4.31172 17 0.5 20.8117 0.5 25.5C0.5 28.6344 2.22656 31.3438 4.75 32.818V48.875C4.75 50.0438 5.70625 51 6.875 51H15.375C16.5438 51 17.5 50.0438 17.5 48.875V46.75H68.5V48.875C68.5 50.0438 69.4563 51 70.625 51H79.125C80.2937 51 81.25 50.0438 81.25 48.875V32.818C83.7734 31.3438 85.5 28.6344 85.5 25.5C85.5 20.8117 81.6883 17 77 17Z" fill="#1DA9EA"/>
</svg>
