<svg width="82" height="82" viewBox="0 0 82 82" fill="none" xmlns="http://www.w3.org/2000/svg">
<rect width="82" height="82" rx="41" fill="#1DA9EA" fill-opacity="0.42"/>
<path d="M41.0042 31.2594C35.6126 31.2594 31.2637 35.6083 31.2637 41C31.2637 46.3916 35.6126 50.7405 41.0042 50.7405C46.3959 50.7405 50.7448 46.3916 50.7448 41C50.7448 35.6083 46.3959 31.2594 41.0042 31.2594ZM41.0042 47.3326C37.52 47.3326 34.6716 44.4927 34.6716 41C34.6716 37.5073 37.5115 34.6673 41.0042 34.6673C44.4969 34.6673 47.3369 37.5073 47.3369 41C47.3369 44.4927 44.4885 47.3326 41.0042 47.3326ZM53.4152 30.861C53.4152 32.1241 52.3979 33.1329 51.1432 33.1329C49.8801 33.1329 48.8713 32.1156 48.8713 30.861C48.8713 29.6063 49.8886 28.589 51.1432 28.589C52.3979 28.589 53.4152 29.6063 53.4152 30.861ZM59.8665 33.1668C59.7224 30.1235 59.0272 27.4276 56.7977 25.2066C54.5766 22.9855 51.8808 22.2903 48.8374 22.1377C45.7007 21.9597 36.2993 21.9597 33.1626 22.1377C30.1277 22.2818 27.4319 22.977 25.2023 25.1981C22.9728 27.4192 22.2861 30.115 22.1335 33.1584C21.9555 36.295 21.9555 45.6965 22.1335 48.8331C22.2776 51.8765 22.9728 54.5723 25.2023 56.7934C27.4319 59.0145 30.1192 59.7096 33.1626 59.8622C36.2993 60.0402 45.7007 60.0402 48.8374 59.8622C51.8808 59.7181 54.5766 59.023 56.7977 56.7934C59.0187 54.5723 59.7139 51.8765 59.8665 48.8331C60.0445 45.6965 60.0445 36.3035 59.8665 33.1668ZM55.8143 52.1986C55.153 53.8602 53.873 55.1403 52.2029 55.81C49.7021 56.8019 43.7679 56.573 41.0042 56.573C38.2406 56.573 32.2979 56.7934 29.8056 55.81C28.144 55.1488 26.8639 53.8687 26.1942 52.1986C25.2023 49.6978 25.4312 43.7636 25.4312 41C25.4312 38.2363 25.2108 32.2937 26.1942 29.8013C26.8554 28.1397 28.1355 26.8596 29.8056 26.1899C32.3064 25.1981 38.2406 25.427 41.0042 25.427C43.7679 25.427 49.7105 25.2066 52.2029 26.1899C53.8645 26.8512 55.1446 28.1313 55.8143 29.8013C56.8061 32.3021 56.5772 38.2363 56.5772 41C56.5772 43.7636 56.8061 49.7063 55.8143 52.1986Z" fill="#06A3DA"/>
</svg>
