<svg width="82" height="82" viewBox="0 0 82 82" fill="none" xmlns="http://www.w3.org/2000/svg">
<rect width="82" height="82" rx="41" fill="#1DA9EA" fill-opacity="0.42"/>
<path d="M39.4584 60.193C28.107 43.7368 26 42.0479 26 36C26 27.7157 32.7157 21 41 21C49.2843 21 56 27.7157 56 36C56 42.0479 53.893 43.7368 42.5416 60.193C41.7966 61.2691 40.2033 61.269 39.4584 60.193ZM41 42.25C44.4518 42.25 47.25 39.4518 47.25 36C47.25 32.5482 44.4518 29.75 41 29.75C37.5482 29.75 34.75 32.5482 34.75 36C34.75 39.4518 37.5482 42.25 41 42.25Z" fill="#06A3DA"/>
</svg>
