<svg width="82" height="82" viewBox="0 0 82 82" fill="none" xmlns="http://www.w3.org/2000/svg">
<rect width="82" height="82" rx="41" fill="#1DA9EA" fill-opacity="0.42"/>
<path d="M56.3368 27.9272C52.8897 24.4719 48.299 22.5714 43.4203 22.5714C33.3504 22.5714 25.1563 30.7655 25.1563 40.8354C25.1563 44.0522 25.9955 47.195 27.5915 49.9675L25 59.4286L34.6832 56.8864C37.3488 58.3426 40.3517 59.1077 43.4121 59.1077H43.4203C53.482 59.1077 61.8572 50.9136 61.8572 40.8437C61.8572 35.965 59.7839 31.3826 56.3368 27.9272ZM43.4203 56.0308C40.689 56.0308 38.0152 55.2986 35.6869 53.9164L35.1357 53.5874L29.3932 55.0929L30.9235 49.4903L30.5615 48.9144C29.0395 46.4957 28.2415 43.7067 28.2415 40.8354C28.2415 32.4685 35.0534 25.6566 43.4286 25.6566C47.4845 25.6566 51.2936 27.2361 54.1566 30.1074C57.0197 32.9786 58.7802 36.7877 58.772 40.8437C58.772 49.2188 51.7873 56.0308 43.4203 56.0308ZM51.7461 44.661C51.2936 44.4307 49.0476 43.3282 48.6281 43.1802C48.2085 43.0238 47.9041 42.9498 47.5997 43.4105C47.2953 43.8712 46.4232 44.8914 46.1517 45.204C45.8885 45.5084 45.617 45.5495 45.1645 45.3192C42.4825 43.9782 40.7219 42.9251 38.9531 39.8893C38.4841 39.0831 39.422 39.1407 40.2941 37.3965C40.4422 37.0921 40.3681 36.8289 40.2529 36.5985C40.1378 36.3682 39.2246 34.1222 38.8461 33.209C38.4759 32.3205 38.0975 32.4439 37.8177 32.4274C37.5545 32.411 37.2501 32.411 36.9457 32.411C36.6413 32.411 36.1476 32.5261 35.7281 32.9786C35.3085 33.4393 34.132 34.5418 34.132 36.7877C34.132 39.0337 35.7692 41.2057 35.9913 41.5101C36.2217 41.8145 39.2081 46.4216 43.7906 48.4043C46.6865 49.6548 47.8218 49.7618 49.2698 49.5479C50.1501 49.4163 51.9682 48.4455 52.3467 47.3759C52.7251 46.3064 52.7251 45.3932 52.61 45.204C52.503 44.9983 52.1986 44.8832 51.7461 44.661Z" fill="#06A3DA"/>
</svg>
