<svg width="789" height="37" viewBox="0 0 789 37" fill="none" xmlns="http://www.w3.org/2000/svg">
<path d="M2.5 16C1.11929 16 0 17.1193 0 18.5C0 19.8807 1.11929 21 2.5 21V16ZM788.268 20.2678C789.244 19.2915 789.244 17.7085 788.268 16.7322L772.358 0.82233C771.382 -0.15398 769.799 -0.15398 768.822 0.82233C767.846 1.79864 767.846 3.38155 768.822 4.35786L782.964 18.5L768.822 32.6421C767.846 33.6184 767.846 35.2014 768.822 36.1777C769.799 37.154 771.382 37.154 772.358 36.1777L788.268 20.2678ZM2.5 21H786.5V16H2.5V21Z" fill="#091E3E"/>
<rect x="21.5" y="4.5" width="11" height="28" fill="white"/>
<rect x="42.5" y="4.5" width="11" height="28" fill="white"/>
<rect x="63.5" y="4.5" width="11" height="28" fill="white"/>
<rect x="84.5" y="4.5" width="11" height="28" fill="white"/>
<rect x="105.5" y="4.5" width="11" height="28" fill="white"/>
<rect x="126.5" y="4.5" width="11" height="28" fill="white"/>
<rect x="147.5" y="4.5" width="11" height="28" fill="white"/>
<rect x="168.5" y="4.5" width="11" height="28" fill="white"/>
<rect x="189.5" y="4.5" width="11" height="28" fill="white"/>
<rect x="210.5" y="4.5" width="11" height="28" fill="white"/>
<rect x="231.5" y="4.5" width="11" height="28" fill="white"/>
<rect x="252.5" y="4.5" width="11" height="28" fill="white"/>
<rect x="273.5" y="4.5" width="11" height="28" fill="white"/>
<rect x="294.5" y="4.5" width="11" height="28" fill="white"/>
<rect x="315.5" y="4.5" width="11" height="28" fill="white"/>
<rect x="336.5" y="4.5" width="11" height="28" fill="white"/>
<rect x="357.5" y="4.5" width="11" height="28" fill="white"/>
<rect x="378.5" y="4.5" width="11" height="28" fill="white"/>
<rect x="399.5" y="4.5" width="11" height="28" fill="white"/>
<rect x="420.5" y="4.5" width="11" height="28" fill="white"/>
<rect x="441.5" y="4.5" width="11" height="28" fill="white"/>
<rect x="462.5" y="4.5" width="11" height="28" fill="white"/>
<rect x="483.5" y="4.5" width="11" height="28" fill="white"/>
<rect x="504.5" y="4.5" width="11" height="28" fill="white"/>
<rect x="525.5" y="4.5" width="11" height="28" fill="white"/>
<rect x="546.5" y="4.5" width="11" height="28" fill="white"/>
<rect x="567.5" y="4.5" width="11" height="28" fill="white"/>
<rect x="588.5" y="4.5" width="11" height="28" fill="white"/>
<rect x="609.5" y="4.5" width="11" height="28" fill="white"/>
<rect x="630.5" y="4.5" width="11" height="28" fill="white"/>
<rect x="651.5" y="4.5" width="11" height="28" fill="white"/>
<rect x="672.5" y="4.5" width="11" height="28" fill="white"/>
<rect x="693.5" y="4.5" width="11" height="28" fill="white"/>
<rect x="714.5" y="4.5" width="11" height="28" fill="white"/>
<rect x="735.5" y="4.5" width="11" height="28" fill="white"/>
<rect x="756.5" y="4.5" width="11" height="28" fill="white"/>
</svg>
