<svg width="82" height="82" viewBox="0 0 82 82" fill="none" xmlns="http://www.w3.org/2000/svg">
<path d="M56.7167 19.885C54.3817 17.2184 53.0947 13.7944 53.095 10.25H42.5375V52.6167C42.4578 54.9099 41.4904 57.0825 39.8394 58.6761C38.1884 60.2697 35.983 61.1597 33.6884 61.1583C28.8367 61.1583 24.805 57.195 24.805 52.275C24.805 46.3983 30.4767 41.9908 36.3192 43.8017V33.005C24.5317 31.4333 14.2134 40.59 14.2134 52.275C14.2134 63.6525 23.6434 71.75 33.6542 71.75C44.3825 71.75 53.095 63.0375 53.095 52.275V30.7842C57.3761 33.8587 62.516 35.5082 67.7867 35.4992V24.9417C67.7867 24.9417 61.3634 25.2492 56.7167 19.885Z" fill="white"/>
</svg>
