<svg width="30" height="29" viewBox="0 0 30 29" fill="none" xmlns="http://www.w3.org/2000/svg">
<g clip-path="url(#clip0_187_130)">
<path d="M15.25 16.3125C19.7529 16.3125 23.4062 12.6592 23.4062 8.15625C23.4062 3.65332 19.7529 0 15.25 0C10.7471 0 7.09375 3.65332 7.09375 8.15625C7.09375 12.6592 10.7471 16.3125 15.25 16.3125ZM22.5 18.125H19.3791C18.1217 18.7027 16.7227 19.0312 15.25 19.0312C13.7773 19.0312 12.384 18.7027 11.1209 18.125H8C3.99551 18.125 0.75 21.3705 0.75 25.375V26.2812C0.75 27.7822 1.96777 29 3.46875 29H27.0312C28.5322 29 29.75 27.7822 29.75 26.2812V25.375C29.75 21.3705 26.5045 18.125 22.5 18.125Z" fill="white"/>
</g>
<defs>
<clipPath id="clip0_187_130">
<rect width="29" height="29" fill="white" transform="translate(0.75)"/>
</clipPath>
</defs>
</svg>
